<?xml version="1.0" encoding="UTF-8"?>
<svg id="_레이어_1" data-name="레이어 1" xmlns="http://www.w3.org/2000/svg" xmlns:xlink="http://www.w3.org/1999/xlink" viewBox="0 0 297.32 302.53">
  <rect width="100%" height="100%" fill="#fff"/>
  <defs>
    <style>
      .cls-1 {
        letter-spacing: 0em;
      }

      .cls-2 {
        letter-spacing: 0em;
      }

      .cls-3 {
        clip-path: url(#clippath-45);
      }

      .cls-4 {
        letter-spacing: 0em;
      }

      .cls-5 {
        clip-path: url(#clippath-20);
      }

      .cls-6 {
        clip-path: url(#clippath-11);
      }

      .cls-7 {
        clip-path: url(#clippath-16);
      }

      .cls-8 {
        font-family: FranklinGothic-BookItalic, 'Franklin Gothic Book';
      }

      .cls-8, .cls-9, .cls-10, .cls-11, .cls-12 {
        font-size: 9px;
      }

      .cls-8, .cls-10 {
        font-style: italic;
      }

      .cls-13 {
        letter-spacing: 0em;
      }

      .cls-14 {
        letter-spacing: 0em;
      }

      .cls-15 {
        letter-spacing: 0em;
      }

      .cls-16 {
        letter-spacing: 0em;
      }

      .cls-17 {
        clip-path: url(#clippath-33);
      }

      .cls-18 {
        fill: #caa233;
      }

      .cls-18, .cls-19, .cls-20, .cls-21, .cls-22 {
        stroke-width: 0px;
      }

      .cls-23 {
        clip-path: url(#clippath-47);
      }

      .cls-19 {
        fill: #377366;
      }

      .cls-24 {
        letter-spacing: 0em;
      }

      .cls-25 {
        clip-path: url(#clippath-41);
      }

      .cls-26 {
        letter-spacing: -.02em;
      }

      .cls-27 {
        clip-path: url(#clippath-32);
      }

      .cls-28 {
        letter-spacing: 0em;
      }

      .cls-9 {
        fill: #fff;
      }

      .cls-9, .cls-29, .cls-12 {
        font-family: FranklinGothic-Book, 'Franklin Gothic Book';
      }

      .cls-30 {
        letter-spacing: 0em;
      }

      .cls-31 {
        letter-spacing: 0em;
      }

      .cls-32 {
        letter-spacing: 0em;
      }

      .cls-33 {
        letter-spacing: -.01em;
      }

      .cls-34 {
        font-size: 12.96px;
      }

      .cls-34, .cls-11 {
        font-family: FranklinGothic-Demi, 'Franklin Gothic Demi';
        font-weight: 300;
      }

      .cls-35 {
        letter-spacing: -.01em;
      }

      .cls-36 {
        letter-spacing: 0em;
      }

      .cls-37 {
        clip-path: url(#clippath-2);
      }

      .cls-38 {
        clip-path: url(#clippath-13);
      }

      .cls-39 {
        letter-spacing: 0em;
      }

      .cls-40 {
        clip-path: url(#clippath-37);
      }

      .cls-41 {
        clip-path: url(#clippath-46);
      }

      .cls-42 {
        clip-path: url(#clippath-25);
      }

      .cls-43 {
        letter-spacing: -.01em;
      }

      .cls-44 {
        clip-path: url(#clippath-15);
      }

      .cls-45 {
        letter-spacing: 0em;
      }

      .cls-29 {
        fill: #7f7f7f;
      }

      .cls-29, .cls-46 {
        font-size: 8.04px;
      }

      .cls-47 {
        clip-path: url(#clippath-6);
      }

      .cls-48 {
        clip-path: url(#clippath-40);
      }

      .cls-49 {
        clip-path: url(#clippath-26);
      }

      .cls-50 {
        letter-spacing: 0em;
      }

      .cls-21, .cls-51, .cls-52, .cls-22 {
        fill: none;
      }

      .cls-53 {
        letter-spacing: 0em;
      }

      .cls-54 {
        letter-spacing: 0em;
      }

      .cls-55 {
        clip-path: url(#clippath-7);
      }

      .cls-56 {
        clip-path: url(#clippath-21);
      }

      .cls-57 {
        clip-path: url(#clippath-34);
      }

      .cls-58 {
        letter-spacing: 0em;
      }

      .cls-59 {
        clip-path: url(#clippath-1);
      }

      .cls-60 {
        letter-spacing: 0em;
      }

      .cls-61 {
        clip-path: url(#clippath-4);
      }

      .cls-62 {
        clip-path: url(#clippath-38);
      }

      .cls-63 {
        letter-spacing: -.02em;
      }

      .cls-64 {
        clip-path: url(#clippath-36);
      }

      .cls-65 {
        clip-path: url(#clippath-27);
      }

      .cls-66 {
        letter-spacing: 0em;
      }

      .cls-67 {
        clip-path: url(#clippath-44);
      }

      .cls-68 {
        letter-spacing: 0em;
      }

      .cls-69 {
        letter-spacing: 0em;
      }

      .cls-70 {
        letter-spacing: 0em;
      }

      .cls-71 {
        letter-spacing: 0em;
      }

      .cls-10 {
        fill: #595959;
        font-family: Georgia-Italic, Georgia;
      }

      .cls-72 {
        clip-path: url(#clippath-12);
      }

      .cls-73 {
        letter-spacing: 0em;
      }

      .cls-74 {
        letter-spacing: 0em;
      }

      .cls-75 {
        letter-spacing: 0em;
      }

      .cls-76 {
        clip-path: url(#clippath-24);
      }

      .cls-77 {
        letter-spacing: 0em;
      }

      .cls-78 {
        clip-path: url(#clippath-30);
      }

      .cls-79 {
        clip-path: url(#clippath-22);
      }

      .cls-80 {
        letter-spacing: 0em;
      }

      .cls-81 {
        letter-spacing: 0em;
      }

      .cls-82 {
        letter-spacing: 0em;
      }

      .cls-83 {
        clip-path: url(#clippath-9);
      }

      .cls-84 {
        clip-path: url(#clippath-52);
      }

      .cls-85 {
        letter-spacing: 0em;
      }

      .cls-86 {
        clip-path: url(#clippath);
      }

      .cls-87 {
        clip-path: url(#clippath-50);
      }

      .cls-88 {
        clip-path: url(#clippath-48);
      }

      .cls-89 {
        letter-spacing: 0em;
      }

      .cls-90 {
        letter-spacing: -.01em;
      }

      .cls-91 {
        clip-path: url(#clippath-39);
      }

      .cls-46 {
        font-family: FranklinGothic-Medium, 'Franklin Gothic Medium';
        font-weight: 500;
      }

      .cls-92 {
        clip-path: url(#clippath-19);
      }

      .cls-93 {
        clip-path: url(#clippath-31);
      }

      .cls-94 {
        letter-spacing: 0em;
      }

      .cls-95 {
        clip-path: url(#clippath-3);
      }

      .cls-96 {
        letter-spacing: 0em;
      }

      .cls-97 {
        letter-spacing: -.01em;
      }

      .cls-98 {
        letter-spacing: 0em;
      }

      .cls-99 {
        clip-path: url(#clippath-43);
      }

      .cls-100 {
        letter-spacing: 0em;
      }

      .cls-101 {
        letter-spacing: 0em;
      }

      .cls-102 {
        clip-path: url(#clippath-8);
      }

      .cls-103 {
        letter-spacing: 0em;
      }

      .cls-104 {
        letter-spacing: 0em;
      }

      .cls-105 {
        letter-spacing: 0em;
      }

      .cls-106 {
        letter-spacing: 0em;
      }

      .cls-107 {
        letter-spacing: 0em;
      }

      .cls-108 {
        letter-spacing: 0em;
      }

      .cls-109 {
        letter-spacing: -.01em;
      }

      .cls-110 {
        letter-spacing: -.02em;
      }

      .cls-111 {
        clip-path: url(#clippath-29);
      }

      .cls-112 {
        letter-spacing: 0em;
      }

      .cls-113 {
        clip-path: url(#clippath-18);
      }

      .cls-51 {
        opacity: 0;
        stroke: #000;
        stroke-miterlimit: 10;
        stroke-width: .14px;
      }

      .cls-114 {
        clip-path: url(#clippath-14);
      }

      .cls-115 {
        clip-path: url(#clippath-17);
      }

      .cls-116 {
        letter-spacing: 0em;
      }

      .cls-117 {
        clip-path: url(#clippath-5);
      }

      .cls-118 {
        letter-spacing: 0em;
      }

      .cls-119 {
        letter-spacing: 0em;
      }

      .cls-120 {
        letter-spacing: 0em;
      }

      .cls-121 {
        letter-spacing: 0em;
      }

      .cls-122 {
        letter-spacing: .01em;
      }

      .cls-123 {
        clip-path: url(#clippath-42);
      }

      .cls-124 {
        letter-spacing: 0em;
      }

      .cls-125 {
        letter-spacing: -.02em;
      }

      .cls-52 {
        stroke: #7f7f7f;
        stroke-dasharray: 0 0 0 2;
        stroke-linecap: round;
        stroke-linejoin: round;
      }

      .cls-126 {
        clip-path: url(#clippath-10);
      }

      .cls-127 {
        letter-spacing: -.01em;
      }

      .cls-128 {
        clip-path: url(#clippath-23);
      }

      .cls-129 {
        clip-path: url(#clippath-53);
      }

      .cls-130 {
        clip-path: url(#clippath-49);
      }

      .cls-131 {
        letter-spacing: 0em;
      }

      .cls-132 {
        clip-path: url(#clippath-51);
      }

      .cls-22 {
        fill-rule: evenodd;
      }

      .cls-133 {
        letter-spacing: 0em;
      }

      .cls-134 {
        letter-spacing: -.01em;
      }

      .cls-135 {
        letter-spacing: 0em;
      }

      .cls-136 {
        clip-path: url(#clippath-28);
      }

      .cls-137 {
        letter-spacing: 0em;
      }

      .cls-138 {
        letter-spacing: 0em;
      }

      .cls-139 {
        letter-spacing: 0em;
      }

      .cls-140 {
        clip-path: url(#clippath-35);
      }
    </style>
    <clipPath id="clippath">
      <rect class="cls-21" x="31.95" y="11.26" width="230.45" height="45"/>
    </clipPath>
    <clipPath id="clippath-1">
      <rect class="cls-21" x="31.95" y="11.26" width="230.45" height="45"/>
    </clipPath>
    <clipPath id="clippath-2">
      <rect class="cls-21" x="31.95" y="11.26" width="230.45" height="45"/>
    </clipPath>
    <clipPath id="clippath-3">
      <rect class="cls-21" x="31.95" y="11.26" width="230.45" height="45"/>
    </clipPath>
    <clipPath id="clippath-4">
      <rect class="cls-21" x="31.95" y="11.26" width="230.45" height="45"/>
    </clipPath>
    <clipPath id="clippath-5">
      <rect class="cls-21" x="31.95" y="11.26" width="230.45" height="45"/>
    </clipPath>
    <clipPath id="clippath-6">
      <rect class="cls-21" x="31.95" y="11.26" width="230.45" height="45"/>
    </clipPath>
    <clipPath id="clippath-7">
      <rect class="cls-21" x="31.95" y="11.26" width="230.45" height="45"/>
    </clipPath>
    <clipPath id="clippath-8">
      <rect class="cls-21" x="31.95" y="56.26" width="230.45" height="148.46"/>
    </clipPath>
    <clipPath id="clippath-9">
      <rect class="cls-21" x="31.95" y="56.26" width="230.45" height="148.46"/>
    </clipPath>
    <clipPath id="clippath-10">
      <rect class="cls-21" x="31.95" y="204.72" width="230.45" height="70.34"/>
    </clipPath>
    <clipPath id="clippath-11">
      <rect class="cls-21" x="31.95" y="204.72" width="230.45" height="70.34"/>
    </clipPath>
    <clipPath id="clippath-12">
      <rect class="cls-21" x="31.95" y="204.72" width="230.45" height="70.34"/>
    </clipPath>
    <clipPath id="clippath-13">
      <rect class="cls-21" x="31.95" y="204.72" width="230.45" height="70.34"/>
    </clipPath>
    <clipPath id="clippath-14">
      <rect class="cls-21" x="31.95" y="204.72" width="230.45" height="70.34"/>
    </clipPath>
    <clipPath id="clippath-15">
      <rect class="cls-21" x="31.95" y="204.72" width="230.45" height="70.34"/>
    </clipPath>
    <clipPath id="clippath-16">
      <rect class="cls-21" x="31.95" y="204.72" width="230.45" height="70.34"/>
    </clipPath>
    <clipPath id="clippath-17">
      <rect class="cls-21" x="31.95" y="204.72" width="230.45" height="70.34"/>
    </clipPath>
    <clipPath id="clippath-18">
      <rect class="cls-21" x="31.95" y="204.72" width="230.45" height="70.34"/>
    </clipPath>
    <clipPath id="clippath-19">
      <rect class="cls-21" x="31.95" y="204.72" width="230.45" height="70.34"/>
    </clipPath>
    <clipPath id="clippath-20">
      <rect class="cls-21" x="31.95" y="204.72" width="230.45" height="70.34"/>
    </clipPath>
    <clipPath id="clippath-21">
      <rect class="cls-21" x="31.95" y="204.72" width="230.45" height="70.34"/>
    </clipPath>
    <clipPath id="clippath-22">
      <rect class="cls-21" x="31.95" y="204.72" width="230.45" height="70.34"/>
    </clipPath>
    <clipPath id="clippath-23">
      <rect class="cls-21" x="31.95" y="204.72" width="230.45" height="70.34"/>
    </clipPath>
    <clipPath id="clippath-24">
      <rect class="cls-21" x="31.95" y="204.72" width="230.45" height="70.34"/>
    </clipPath>
    <clipPath id="clippath-25">
      <rect class="cls-21" x="31.95" y="204.72" width="230.45" height="70.34"/>
    </clipPath>
    <clipPath id="clippath-26">
      <rect class="cls-21" x="31.95" y="204.72" width="230.45" height="70.34"/>
    </clipPath>
    <clipPath id="clippath-27">
      <rect class="cls-21" x="31.95" y="204.72" width="230.45" height="70.34"/>
    </clipPath>
    <clipPath id="clippath-28">
      <rect class="cls-21" x="31.95" y="204.72" width="230.45" height="70.34"/>
    </clipPath>
    <clipPath id="clippath-29">
      <rect class="cls-21" x="31.95" y="204.72" width="230.45" height="70.34"/>
    </clipPath>
    <clipPath id="clippath-30">
      <rect class="cls-21" x="31.9" y="56.21" width="230.4" height="148.44"/>
    </clipPath>
    <clipPath id="clippath-31">
      <rect class="cls-21" x="31.9" y="56.21" width="230.04" height="148.44"/>
    </clipPath>
    <clipPath id="clippath-32">
      <rect class="cls-21" x="31.9" y="56.21" width="230.04" height="148.44"/>
    </clipPath>
    <clipPath id="clippath-33">
      <rect class="cls-21" x="31.9" y="56.21" width="230.04" height="148.44"/>
    </clipPath>
    <clipPath id="clippath-34">
      <rect class="cls-21" x="31.9" y="56.21" width="230.04" height="148.44"/>
    </clipPath>
    <clipPath id="clippath-35">
      <rect class="cls-21" x="31.9" y="56.21" width="230.04" height="148.44"/>
    </clipPath>
    <clipPath id="clippath-36">
      <rect class="cls-21" x="31.9" y="56.21" width="230.04" height="148.44"/>
    </clipPath>
    <clipPath id="clippath-37">
      <rect class="cls-21" x="31.9" y="56.21" width="230.04" height="148.44"/>
    </clipPath>
    <clipPath id="clippath-38">
      <rect class="cls-21" x="31.9" y="56.21" width="230.04" height="148.44"/>
    </clipPath>
    <clipPath id="clippath-39">
      <rect class="cls-21" x="31.9" y="56.21" width="230.16" height="148.44"/>
    </clipPath>
    <clipPath id="clippath-40">
      <rect class="cls-21" x="31.9" y="56.21" width="230.16" height="148.44"/>
    </clipPath>
    <clipPath id="clippath-41">
      <rect class="cls-21" x="31.9" y="56.21" width="230.16" height="148.44"/>
    </clipPath>
    <clipPath id="clippath-42">
      <rect class="cls-21" x="31.9" y="56.21" width="230.16" height="148.44"/>
    </clipPath>
    <clipPath id="clippath-43">
      <rect class="cls-21" x="31.9" y="56.21" width="230.16" height="148.44"/>
    </clipPath>
    <clipPath id="clippath-44">
      <rect class="cls-21" x="31.9" y="56.21" width="230.16" height="148.44"/>
    </clipPath>
    <clipPath id="clippath-45">
      <rect class="cls-21" x="31.9" y="56.21" width="230.16" height="148.44"/>
    </clipPath>
    <clipPath id="clippath-46">
      <rect class="cls-21" x="31.9" y="56.21" width="230.16" height="148.44"/>
    </clipPath>
    <clipPath id="clippath-47">
      <rect class="cls-21" x="31.9" y="56.21" width="230.16" height="148.44"/>
    </clipPath>
    <clipPath id="clippath-48">
      <rect class="cls-21" x="31.9" y="56.21" width="230.16" height="148.44"/>
    </clipPath>
    <clipPath id="clippath-49">
      <rect class="cls-21" x="31.9" y="56.21" width="230.16" height="148.44"/>
    </clipPath>
    <clipPath id="clippath-50">
      <rect class="cls-21" x="31.9" y="56.21" width="230.16" height="148.44"/>
    </clipPath>
    <clipPath id="clippath-51">
      <rect class="cls-21" x="31.9" y="56.21" width="230.16" height="148.44"/>
    </clipPath>
    <clipPath id="clippath-52">
      <rect class="cls-21" x="31.9" y="56.21" width="230.16" height="148.44"/>
    </clipPath>
    <clipPath id="clippath-53">
      <rect class="cls-21" x="31.9" y="56.21" width="230.16" height="148.44"/>
    </clipPath>
  </defs>
  <g class="cls-86">
    <g class="cls-59">
      <text class="cls-34" transform="translate(31.95 31.3)"><tspan x="0" y="0">V</tspan><tspan class="cls-85" x="7.2" y="0">i</tspan><tspan x="10.65" y="0">e</tspan><tspan class="cls-85" x="17.58" y="0">w</tspan><tspan x="26.94" y="0">s o</tspan><tspan class="cls-82" x="43.25" y="0">f</tspan><tspan class="cls-75" x="47.44" y="0" xml:space="preserve"> di</tspan><tspan class="cls-85" x="61.11" y="0">v</tspan><tspan x="66.97" y="0">o</tspan><tspan class="cls-100" x="73.91" y="0">r</tspan><tspan x="78.47" y="0">ce </tspan><tspan class="cls-14" x="95.27" y="0">d</tspan><tspan class="cls-58" x="102.23" y="0">i</tspan><tspan class="cls-138" x="105.69" y="0">ff</tspan><tspan x="114.06" y="0">e</tspan><tspan class="cls-100" x="120.99" y="0">r</tspan><tspan x="125.55" y="0" xml:space="preserve"> by p</tspan><tspan class="cls-58" x="151.85" y="0">a</tspan><tspan class="cls-137" x="158.89" y="0">r</tspan><tspan x="163.43" y="0">ty</tspan></text>
    </g>
    <g class="cls-37">
      <text class="cls-34" transform="translate(206 31.3)"><tspan class="cls-85" x="0" y="0">,</tspan><tspan x="3.35" y="0"> </tspan></text>
    </g>
    <g class="cls-95">
      <text class="cls-34" transform="translate(212.6 31.3)"><tspan class="cls-58" x="0" y="0">i</tspan><tspan class="cls-75" x="3.46" y="0">deo</tspan><tspan class="cls-138" x="24.32" y="0">l</tspan><tspan x="27.79" y="0">o</tspan><tspan class="cls-137" x="34.73" y="0">g</tspan><tspan x="41.94" y="0">y</tspan></text>
    </g>
    <g class="cls-61">
      <text class="cls-34" transform="translate(260.36 31.3)"><tspan x="0" y="0"> </tspan></text>
    </g>
    <g class="cls-117">
      <text class="cls-10" transform="translate(31.95 47.86)"><tspan class="cls-45" x="0" y="0">%</tspan><tspan x="7.32" y="0"> </tspan><tspan class="cls-60" x="9.49" y="0">s</tspan><tspan x="13.33" y="0">ay</tspan><tspan class="cls-4" x="23.52" y="0">i</tspan><tspan class="cls-105" x="26.17" y="0">n</tspan><tspan x="31.46" y="0">g </tspan><tspan class="cls-122" x="38.78" y="0">c</tspan><tspan class="cls-45" x="42.96" y="0">o</tspan><tspan x="47.76" y="0">u</tspan><tspan class="cls-53" x="52.94" y="0">p</tspan><tspan class="cls-71" x="58.09" y="0">l</tspan><tspan class="cls-139" x="60.71" y="0">es</tspan><tspan x="68.76" y="0"> </tspan><tspan class="cls-107" x="70.93" y="0">w</tspan><tspan class="cls-105" x="78.35" y="0">h</tspan><tspan class="cls-124" x="83.4" y="0">o</tspan><tspan x="88.3" y="0" xml:space="preserve"> a</tspan><tspan class="cls-108" x="95.63" y="0">r</tspan><tspan class="cls-139" x="99.81" y="0">e</tspan><tspan x="104.02" y="0" xml:space="preserve"> u</tspan><tspan class="cls-54" x="111.36" y="0">n</tspan><tspan class="cls-135" x="116.63" y="0">h</tspan><tspan x="121.77" y="0">a</tspan><tspan class="cls-139" x="126.93" y="0">p</tspan><tspan class="cls-54" x="132.09" y="0">p</tspan><tspan x="137.25" y="0">y t</tspan><tspan class="cls-53" x="147.58" y="0">e</tspan><tspan class="cls-2" x="151.77" y="0">n</tspan><tspan x="157.16" y="0">d </tspan><tspan class="cls-4" x="164.51" y="0">t</tspan><tspan class="cls-139" x="167.61" y="0">o</tspan><tspan x="172.41" y="0"> </tspan></text>
    </g>
    <g class="cls-47">
      <text class="cls-10" transform="translate(206.6 47.86)"><tspan x="0" y="0">…</tspan></text>
    </g>
    <g class="cls-55">
      <text class="cls-10" transform="translate(214.04 47.86)"><tspan x="0" y="0"> </tspan></text>
    </g>
  </g>
  <rect class="cls-20" x="31.95" y="11.02" width="230.45" height=".24"/>
  <g class="cls-102">
    <g class="cls-83">
      <text class="cls-12" transform="translate(58.23 65.5)"><tspan x="0" y="0"> </tspan></text>
    </g>
  </g>
  <g class="cls-126">
    <g class="cls-6">
      <text class="cls-29" transform="translate(31.95 220.08)"><tspan x="0" y="0">No</tspan><tspan class="cls-73" x="9.46" y="0">t</tspan><tspan class="cls-43" x="11.99" y="0">e</tspan><tspan class="cls-24" x="16.07" y="0">:</tspan><tspan class="cls-94" x="18.1" y="0"> </tspan></text>
    </g>
    <g class="cls-72">
      <text class="cls-29" transform="translate(52.11 220.08)"><tspan x="0" y="0">S</tspan><tspan class="cls-89" x="4.58" y="0">h</tspan><tspan class="cls-112" x="8.88" y="0">a</tspan><tspan x="13.08" y="0">re</tspan><tspan class="cls-97" x="19.92" y="0"> </tspan><tspan x="21.84" y="0">of</tspan><tspan class="cls-36" x="28.43" y="0"> </tspan><tspan x="30.46" y="0">r</tspan><tspan class="cls-90" x="33.11" y="0">e</tspan><tspan x="37.18" y="0">sp</tspan><tspan class="cls-36" x="45.21" y="0">o</tspan><tspan class="cls-104" x="49.41" y="0">n</tspan><tspan class="cls-125" x="53.73" y="0">d</tspan><tspan x="57.94" y="0">e</tspan><tspan class="cls-31" x="62.12" y="0">n</tspan><tspan class="cls-77" x="66.46" y="0">t</tspan><tspan x="68.97" y="0">s</tspan><tspan class="cls-43" x="72.7" y="0"> </tspan><tspan class="cls-69" x="74.6" y="0">w</tspan><tspan x="79.99" y="0">h</tspan><tspan class="cls-90" x="84.33" y="0">o</tspan><tspan class="cls-36" x="88.4" y="0"> </tspan><tspan x="90.43" y="0">d</tspan><tspan class="cls-68" x="94.76" y="0">i</tspan><tspan class="cls-125" x="96.55" y="0">d</tspan><tspan class="cls-104" x="100.75" y="0">n</tspan><tspan class="cls-120" x="105.08" y="0">’</tspan><tspan class="cls-77" x="107.11" y="0">t</tspan><tspan class="cls-36" x="109.61" y="0"> </tspan><tspan x="111.65" y="0">of</tspan><tspan class="cls-63" x="118.24" y="0">f</tspan><tspan class="cls-81" x="120.53" y="0">er</tspan><tspan class="cls-98" x="127.36" y="0"> </tspan><tspan class="cls-112" x="129.39" y="0">a</tspan><tspan class="cls-104" x="133.59" y="0">n</tspan><tspan class="cls-36" x="137.92" y="0"> </tspan><tspan class="cls-112" x="139.95" y="0">a</tspan><tspan class="cls-104" x="144.15" y="0">n</tspan><tspan x="148.48" y="0">s</tspan><tspan class="cls-16" x="152.21" y="0">w</tspan><tspan class="cls-81" x="157.47" y="0">er</tspan></text>
    </g>
    <g class="cls-38">
      <text class="cls-29" transform="translate(216.56 220.08)"><tspan x="0" y="0"> </tspan></text>
    </g>
    <g class="cls-114">
      <text class="cls-29" transform="translate(218.6 220.08)"><tspan class="cls-112" x="0" y="0">a</tspan><tspan x="4.2" y="0">re</tspan></text>
    </g>
    <g class="cls-44">
      <text class="cls-29" transform="translate(229.64 220.08)"><tspan x="0" y="0"> </tspan></text>
    </g>
    <g class="cls-7">
      <text class="cls-29" transform="translate(231.68 220.08)"><tspan class="cls-26" x="0" y="0">n</tspan><tspan x="4.2" y="0">o</tspan><tspan class="cls-121" x="8.38" y="0">t</tspan><tspan x="10.81" y="0"> </tspan></text>
    </g>
    <g class="cls-115">
      <text class="cls-29" transform="translate(31.95 229.2)"><tspan x="0" y="0">s</tspan><tspan class="cls-80" x="3.73" y="0">h</tspan><tspan x="8.04" y="0">o</tspan><tspan class="cls-116" x="12.22" y="0">w</tspan><tspan x="17.62" y="0">n</tspan></text>
    </g>
    <g class="cls-113">
      <text class="cls-29" transform="translate(53.91 229.2)"><tspan x="0" y="0">.</tspan></text>
    </g>
    <g class="cls-92">
      <text class="cls-29" transform="translate(55.83 229.2)"><tspan x="0" y="0"> </tspan></text>
    </g>
    <g class="cls-5">
      <text class="cls-29" transform="translate(31.95 238.32)"><tspan x="0" y="0">So</tspan><tspan class="cls-28" x="8.75" y="0">u</tspan><tspan x="13.08" y="0">r</tspan><tspan class="cls-80" x="15.73" y="0">c</tspan><tspan x="19.45" y="0">e</tspan><tspan class="cls-36" x="23.63" y="0">: </tspan><tspan class="cls-81" x="27.7" y="0">S</tspan><tspan class="cls-112" x="32.28" y="0">u</tspan><tspan x="36.58" y="0">r</tspan><tspan class="cls-104" x="39.23" y="0">v</tspan><tspan class="cls-43" x="42.82" y="0">e</tspan><tspan x="46.9" y="0">y</tspan><tspan class="cls-69" x="50.24" y="0"> </tspan><tspan class="cls-33" x="52.3" y="0">o</tspan><tspan x="56.38" y="0">f </tspan><tspan class="cls-121" x="60.8" y="0">U</tspan><tspan class="cls-24" x="65.62" y="0">.</tspan><tspan x="67.65" y="0">S.</tspan><tspan class="cls-66" x="74.23" y="0"> </tspan><tspan class="cls-112" x="76.28" y="0">a</tspan><tspan class="cls-81" x="80.49" y="0">d</tspan><tspan class="cls-50" x="84.82" y="0">ul</tspan><tspan class="cls-77" x="90.94" y="0">t</tspan><tspan class="cls-63" x="93.45" y="0">s</tspan><tspan class="cls-98" x="97.05" y="0"> </tspan><tspan class="cls-119" x="99.08" y="0">c</tspan><tspan x="102.81" y="0">on</tspan><tspan class="cls-28" x="111.34" y="0">d</tspan><tspan class="cls-26" x="115.65" y="0">u</tspan><tspan class="cls-31" x="119.85" y="0">c</tspan><tspan class="cls-96" x="123.58" y="0">t</tspan><tspan x="126.09" y="0">ed</tspan><tspan class="cls-103" x="134.6" y="0"> </tspan><tspan class="cls-109" x="136.62" y="0">A</tspan><tspan class="cls-103" x="140.82" y="0">p</tspan><tspan x="145.12" y="0">r</tspan><tspan class="cls-68" x="147.77" y="0">i</tspan><tspan class="cls-50" x="149.56" y="0">l</tspan><tspan class="cls-24" x="151.37" y="0"> </tspan><tspan class="cls-104" x="153.4" y="0">1</tspan><tspan x="158.08" y="0">0</tspan></text>
    </g>
    <g class="cls-56">
      <text class="cls-29" transform="translate(194.81 238.32)"><tspan x="0" y="0">-</tspan></text>
    </g>
    <g class="cls-79">
      <text class="cls-29" transform="translate(196.85 238.32)"><tspan class="cls-104" x="0" y="0">16</tspan><tspan class="cls-98" x="9.37" y="0">, </tspan><tspan class="cls-80" x="13.42" y="0">2023</tspan><tspan x="32.15" y="0">.</tspan></text>
    </g>
    <g class="cls-128">
      <text class="cls-29" transform="translate(230.96 238.32)"><tspan x="0" y="0"> </tspan></text>
    </g>
    <g class="cls-76">
      <text class="cls-29" transform="translate(31.95 247.32)"><tspan x="0" y="0">“</tspan></text>
    </g>
    <g class="cls-42">
      <text class="cls-29" transform="translate(35.19 247.32)"><tspan class="cls-68" x="0" y="0">P</tspan><tspan class="cls-104" x="4.44" y="0">u</tspan><tspan x="8.76" y="0">b</tspan><tspan class="cls-50" x="13.08" y="0">li</tspan><tspan class="cls-31" x="16.69" y="0">c</tspan><tspan class="cls-24" x="20.42" y="0"> </tspan><tspan x="22.45" y="0">H</tspan><tspan class="cls-68" x="27.61" y="0">a</tspan><tspan x="31.81" y="0">s M</tspan><tspan class="cls-68" x="44.06" y="0">i</tspan><tspan class="cls-89" x="45.85" y="0">x</tspan><tspan x="49.22" y="0">ed</tspan><tspan class="cls-103" x="57.73" y="0"> </tspan><tspan x="59.75" y="0">V</tspan><tspan class="cls-50" x="64.07" y="0">i</tspan><tspan x="65.87" y="0">e</tspan><tspan class="cls-32" x="70.05" y="0">w</tspan><tspan class="cls-63" x="75.45" y="0">s</tspan><tspan class="cls-36" x="79.06" y="0"> </tspan><tspan x="81.09" y="0">on</tspan><tspan class="cls-43" x="89.63" y="0"> </tspan><tspan class="cls-77" x="91.53" y="0">t</tspan><tspan x="94.04" y="0">he </tspan><tspan class="cls-110" x="104.58" y="0">M</tspan><tspan x="110.95" y="0">o</tspan><tspan class="cls-43" x="115.13" y="0">d</tspan><tspan class="cls-81" x="119.35" y="0">er</tspan><tspan class="cls-39" x="126.19" y="0">n</tspan><tspan class="cls-24" x="130.51" y="0"> </tspan><tspan class="cls-43" x="132.54" y="0">A</tspan><tspan class="cls-118" x="136.74" y="0">m</tspan><tspan x="143.34" y="0">er</tspan><tspan class="cls-50" x="150.17" y="0">i</tspan><tspan class="cls-31" x="151.97" y="0">c</tspan><tspan class="cls-112" x="155.7" y="0">a</tspan><tspan class="cls-104" x="159.91" y="0">n</tspan><tspan class="cls-24" x="164.23" y="0"> </tspan><tspan x="166.26" y="0">F</tspan><tspan class="cls-112" x="170.34" y="0">a</tspan><tspan class="cls-118" x="174.54" y="0">m</tspan><tspan class="cls-50" x="181.14" y="0">il</tspan><tspan x="184.75" y="0">y</tspan></text>
    </g>
    <g class="cls-49">
      <text class="cls-29" transform="translate(223.4 247.32)"><tspan x="0" y="0">”</tspan></text>
    </g>
    <g class="cls-65">
      <text class="cls-29" transform="translate(226.52 247.32)"><tspan x="0" y="0"> </tspan></text>
    </g>
    <g class="cls-136">
      <text class="cls-46" transform="translate(31.95 261.48)"><tspan x="0" y="0">PE</tspan><tspan class="cls-104" x="9.13" y="0">W</tspan><tspan class="cls-24" x="16.2" y="0"> </tspan><tspan x="18.23" y="0">RE</tspan><tspan class="cls-50" x="27.71" y="0">S</tspan><tspan x="32.26" y="0">E</tspan><tspan class="cls-112" x="36.58" y="0">A</tspan><tspan class="cls-63" x="41.38" y="0">R</tspan><tspan class="cls-103" x="46.42" y="0">C</tspan><tspan x="51.08" y="0">H</tspan><tspan class="cls-134" x="56.24" y="0"> </tspan><tspan class="cls-103" x="58.17" y="0">C</tspan><tspan x="62.83" y="0">E</tspan><tspan class="cls-118" x="67.15" y="0">N</tspan><tspan class="cls-89" x="72.42" y="0">T</tspan><tspan class="cls-35" x="76.27" y="0">E</tspan><tspan class="cls-81" x="80.47" y="0">R</tspan></text>
    </g>
    <g class="cls-111">
      <text class="cls-46" transform="translate(117.53 261.48)"><tspan x="0" y="0"> </tspan></text>
    </g>
  </g>
  <rect class="cls-20" x="31.23" y="275.07" width="231.17" height=".24"/>
  <polyline class="cls-22" points="17.55 275.31 263.6 275.31 263.6 11.02 17.55 11.02"/>
  <g class="cls-78">
    <rect class="cls-51" x="31.87" y="56.25" width="230.1" height="153.45"/>
  </g>
  <path class="cls-18" d="m157.9,188.33h22.44v15.24h-22.44v-15.24Zm-13.56-22.92h36v15.36h-36v-15.36Zm-8.76-45.72h44.76v15.24h-44.76v-15.24Zm-17.52-22.92h62.28v15.24h-62.28v-15.24Z"/>
  <path class="cls-19" d="m254.26,188.33h-73.92v15.24h73.92v-15.24Zm-13.68-22.92h-60.24v15.36h60.24v-15.36Zm-8.76-45.72h-51.48v15.24h51.48v-15.24Zm-17.52-22.92h-33.96v15.24h33.96v-15.24Z"/>
  <g class="cls-93">
    <text class="cls-12" transform="translate(144 107.62)"><tspan x="0" y="0">64</tspan></text>
  </g>
  <g class="cls-27">
    <text class="cls-12" transform="translate(152.76 130.51)"><tspan x="0" y="0">46</tspan></text>
  </g>
  <g class="cls-17">
    <text class="cls-12" transform="translate(157.16 176.33)"><tspan x="0" y="0">37</tspan></text>
  </g>
  <g class="cls-57">
    <text class="cls-12" transform="translate(163.95 199.25)"><tspan x="0" y="0">23</tspan></text>
  </g>
  <g class="cls-140">
    <text class="cls-9" transform="translate(192.17 107.62)"><tspan x="0" y="0">35</tspan></text>
  </g>
  <g class="cls-64">
    <text class="cls-9" transform="translate(200.91 130.51)"><tspan x="0" y="0">53</tspan></text>
  </g>
  <g class="cls-40">
    <text class="cls-9" transform="translate(205.3 176.33)"><tspan x="0" y="0">62</tspan></text>
  </g>
  <g class="cls-62">
    <text class="cls-9" transform="translate(212.12 199.25)"><tspan x="0" y="0">76</tspan></text>
  </g>
  <g class="cls-91">
    <text class="cls-11" transform="translate(184.18 68.33)"><tspan class="cls-131" x="0" y="0">S</tspan><tspan class="cls-45" x="5.27" y="0">t</tspan><tspan class="cls-106" x="8.4" y="0">a</tspan><tspan class="cls-54" x="13.31" y="0">y</tspan><tspan class="cls-107" x="17.27" y="0"> </tspan><tspan x="19.54" y="0">in</tspan><tspan class="cls-127" x="26.86" y="0"> </tspan><tspan x="29.02" y="0">b</tspan><tspan class="cls-71" x="33.92" y="0">a</tspan><tspan class="cls-53" x="38.85" y="0">d</tspan><tspan x="43.65" y="0"> </tspan></text>
  </g>
  <g class="cls-48">
    <text class="cls-11" transform="translate(184.18 78.53)"><tspan x="0" y="0">m</tspan><tspan class="cls-71" x="7.42" y="0">a</tspan><tspan x="12.35" y="0">rri</tspan><tspan class="cls-74" x="20.98" y="0">a</tspan><tspan class="cls-101" x="25.9" y="0">g</tspan><tspan x="30.82" y="0">e</tspan><tspan class="cls-1" x="35.64" y="0">s</tspan><tspan class="cls-107" x="39.82" y="0"> </tspan><tspan class="cls-45" x="42.09" y="0">t</tspan><tspan x="45.22" y="0">o</tspan><tspan class="cls-70" x="50.04" y="0">o</tspan><tspan class="cls-107" x="54.82" y="0"> </tspan><tspan x="57.09" y="0">long</tspan></text>
  </g>
  <g class="cls-25">
    <text class="cls-11" transform="translate(117.87 68.33)"><tspan class="cls-108" x="0" y="0">D</tspan><tspan x="5.86" y="0">i</tspan><tspan class="cls-13" x="8.25" y="0">v</tspan><tspan x="12.33" y="0">or</tspan><tspan class="cls-53" x="20.27" y="0">c</tspan><tspan x="24.82" y="0">e</tspan></text>
  </g>
  <g class="cls-123">
    <text class="cls-11" transform="translate(149.81 68.33)"><tspan class="cls-45" x="0" y="0">t</tspan><tspan x="3.13" y="0">o</tspan><tspan class="cls-70" x="7.94" y="0">o</tspan><tspan x="12.73" y="0"> </tspan></text>
  </g>
  <g class="cls-99">
    <text class="cls-11" transform="translate(134.45 78.53)"><tspan x="0" y="0">q</tspan><tspan class="cls-71" x="4.9" y="0">u</tspan><tspan x="9.82" y="0">i</tspan><tspan class="cls-4" x="12.21" y="0">c</tspan><tspan class="cls-30" x="16.79" y="0">k</tspan><tspan x="21.7" y="0">ly</tspan></text>
  </g>
  <g class="cls-67">
    <line class="cls-52" x1="31.87" y1="143.44" x2="261.97" y2="143.44"/>
  </g>
  <g class="cls-3">
    <text class="cls-12" transform="translate(46.92 171.96)"><tspan class="cls-53" x="0" y="0">C</tspan><tspan x="5.16" y="0">o</tspan><tspan class="cls-106" x="9.83" y="0">n</tspan><tspan x="14.75" y="0">se</tspan><tspan class="cls-15" x="23.61" y="0">r</tspan><tspan class="cls-133" x="26.61" y="0">v</tspan><tspan class="cls-30" x="30.67" y="0">a</tspan><tspan x="35.46" y="0">t</tspan><tspan class="cls-45" x="38.22" y="0">i</tspan><tspan class="cls-133" x="40.25" y="0">v</tspan><tspan x="44.32" y="0">e/</tspan></text>
  </g>
  <g class="cls-41">
    <text class="cls-12" transform="translate(63.36 182.16)"><tspan class="cls-133" x="0" y="0">M</tspan><tspan x="7.3" y="0">o</tspan><tspan class="cls-54" x="11.98" y="0">d</tspan><tspan x="16.78" y="0">er</tspan><tspan class="cls-71" x="24.43" y="0">a</tspan><tspan x="29.24" y="0">te</tspan></text>
  </g>
  <g class="cls-23">
    <text class="cls-12" transform="translate(51.96 105.07)"><tspan class="cls-53" x="0" y="0">C</tspan><tspan x="5.16" y="0">o</tspan><tspan class="cls-106" x="9.83" y="0">n</tspan><tspan x="14.75" y="0">se</tspan><tspan class="cls-15" x="23.61" y="0">r</tspan><tspan class="cls-133" x="26.61" y="0">v</tspan><tspan class="cls-30" x="30.67" y="0">a</tspan><tspan x="35.46" y="0">t</tspan><tspan class="cls-45" x="38.22" y="0">i</tspan><tspan class="cls-133" x="40.25" y="0">v</tspan><tspan x="44.32" y="0">e</tspan></text>
  </g>
  <g class="cls-88">
    <text class="cls-12" transform="translate(75 200.02)"><tspan class="cls-107" x="0" y="0">L</tspan><tspan x="4.43" y="0">i</tspan><tspan class="cls-53" x="6.49" y="0">b</tspan><tspan x="11.27" y="0">er</tspan><tspan class="cls-71" x="18.92" y="0">a</tspan><tspan x="23.74" y="0">l</tspan></text>
  </g>
  <g class="cls-130">
    <text class="cls-12" transform="translate(60 125.33)"><tspan class="cls-133" x="0" y="0">M</tspan><tspan x="7.3" y="0">o</tspan><tspan class="cls-54" x="11.98" y="0">d</tspan><tspan x="16.78" y="0">er</tspan><tspan class="cls-71" x="24.43" y="0">a</tspan><tspan x="29.24" y="0">te/</tspan></text>
  </g>
  <g class="cls-87">
    <text class="cls-12" transform="translate(75 135.53)"><tspan class="cls-107" x="0" y="0">L</tspan><tspan x="4.43" y="0">i</tspan><tspan class="cls-53" x="6.49" y="0">b</tspan><tspan x="11.27" y="0">er</tspan><tspan class="cls-71" x="18.92" y="0">a</tspan><tspan x="23.74" y="0">l</tspan></text>
  </g>
  <g class="cls-132">
    <text class="cls-8" transform="translate(38.09 86.23)"><tspan class="cls-70" x="0" y="0">Am</tspan><tspan x="12.37" y="0">ong</tspan><tspan class="cls-30" x="26.52" y="0"> </tspan><tspan class="cls-74" x="28.8" y="0">R</tspan><tspan x="34.54" y="0">ep</tspan><tspan class="cls-139" x="44.04" y="0">/</tspan><tspan x="48.23" y="0">Le</tspan><tspan class="cls-45" x="57.48" y="0">a</tspan><tspan x="62.26" y="0">n</tspan></text>
  </g>
  <g class="cls-84">
    <text class="cls-8" transform="translate(107.57 86.23)"><tspan class="cls-131" x="0" y="0">R</tspan><tspan x="5.74" y="0">ep</tspan></text>
  </g>
  <g class="cls-129">
    <text class="cls-8" transform="translate(36.96 156.63)"><tspan class="cls-70" x="0" y="0">Am</tspan><tspan x="12.37" y="0">ong</tspan><tspan class="cls-30" x="26.52" y="0" xml:space="preserve"> D</tspan><tspan x="34.66" y="0">e</tspan><tspan class="cls-70" x="39.34" y="0">m</tspan><tspan x="46.66" y="0">/</tspan><tspan class="cls-45" x="50.88" y="0">L</tspan><tspan x="55.43" y="0">ea</tspan><tspan class="cls-105" x="64.92" y="0">n</tspan><tspan class="cls-107" x="69.84" y="0"> </tspan><tspan class="cls-108" x="72.1" y="0">D</tspan><tspan x="77.97" y="0">em</tspan></text>
  </g>
</svg>
