<?xml version="1.0" encoding="UTF-8"?>
<svg id="_레이어_1" data-name="레이어 1" xmlns="http://www.w3.org/2000/svg" xmlns:xlink="http://www.w3.org/1999/xlink" viewBox="0 0 686.76 406.2">
  <rect width="100%" height="100%" fill="#fff"/>
  <defs>
    <style>
      .cls-1 {
        clip-path: url(#clippath-73);
      }

      .cls-2 {
        clip-path: url(#clippath-72);
      }

      .cls-3 {
        clip-path: url(#clippath-62);
      }

      .cls-4 {
        clip-path: url(#clippath-45);
      }

      .cls-5 {
        clip-path: url(#clippath-63);
      }

      .cls-6 {
        clip-path: url(#clippath-20);
      }

      .cls-7 {
        clip-path: url(#clippath-11);
      }

      .cls-8 {
        clip-path: url(#clippath-16);
      }

      .cls-9 {
        clip-path: url(#clippath-59);
      }

      .cls-10 {
        clip-path: url(#clippath-78);
      }

      .cls-11 {
        clip-path: url(#clippath-33);
      }

      .cls-12 {
        clip-path: url(#clippath-64);
      }

      .cls-13 {
        clip-path: url(#clippath-47);
      }

      .cls-14 {
        clip-path: url(#clippath-77);
      }

      .cls-15 {
        clip-path: url(#clippath-41);
      }

      .cls-16 {
        clip-path: url(#clippath-32);
      }

      .cls-17 {
        stroke: #d9d9d9;
        stroke-linejoin: round;
        stroke-width: .75px;
      }

      .cls-17, .cls-18, .cls-19 {
        fill: none;
      }

      .cls-20 {
        clip-path: url(#clippath-83);
      }

      .cls-21 {
        clip-path: url(#clippath-2);
      }

      .cls-22 {
        clip-path: url(#clippath-13);
      }

      .cls-23 {
        clip-path: url(#clippath-37);
      }

      .cls-24 {
        clip-path: url(#clippath-46);
      }

      .cls-25 {
        clip-path: url(#clippath-25);
      }

      .cls-26 {
        font-family: AppleSDGothicNeoEB00, AppleSDGothicNeoEB00;
        font-size: 18.6px;
      }

      .cls-26, .cls-27 {
        fill: #585959;
      }

      .cls-28, .cls-29, .cls-18, .cls-19, .cls-30, .cls-31 {
        stroke-width: 0px;
      }

      .cls-28, .cls-30 {
        fill: #de6e34;
      }

      .cls-32 {
        clip-path: url(#clippath-15);
      }

      .cls-33 {
        letter-spacing: 0em;
      }

      .cls-34 {
        clip-path: url(#clippath-6);
      }

      .cls-35 {
        letter-spacing: .01em;
      }

      .cls-36 {
        clip-path: url(#clippath-76);
      }

      .cls-37 {
        clip-path: url(#clippath-40);
      }

      .cls-38 {
        clip-path: url(#clippath-26);
      }

      .cls-39 {
        clip-path: url(#clippath-81);
      }

      .cls-40 {
        clip-path: url(#clippath-75);
      }

      .cls-29, .cls-30 {
        fill-rule: evenodd;
      }

      .cls-29, .cls-31 {
        fill: #145d7d;
      }

      .cls-41 {
        clip-path: url(#clippath-7);
      }

      .cls-42 {
        clip-path: url(#clippath-21);
      }

      .cls-43 {
        letter-spacing: -.01em;
      }

      .cls-44 {
        clip-path: url(#clippath-34);
      }

      .cls-45 {
        clip-path: url(#clippath-57);
      }

      .cls-46 {
        clip-path: url(#clippath-1);
      }

      .cls-47 {
        clip-path: url(#clippath-4);
      }

      .cls-48 {
        clip-path: url(#clippath-38);
      }

      .cls-19 {
        clip-rule: evenodd;
      }

      .cls-49 {
        clip-path: url(#clippath-36);
      }

      .cls-50 {
        clip-path: url(#clippath-27);
      }

      .cls-51 {
        clip-path: url(#clippath-60);
      }

      .cls-52 {
        clip-path: url(#clippath-44);
      }

      .cls-53 {
        letter-spacing: 0em;
      }

      .cls-54 {
        fill: #040000;
      }

      .cls-54, .cls-27 {
        font-family: MalgunGothic, 'Malgun Gothic';
        font-size: 12px;
      }

      .cls-55 {
        clip-path: url(#clippath-12);
      }

      .cls-56 {
        clip-path: url(#clippath-80);
      }

      .cls-57 {
        clip-path: url(#clippath-24);
      }

      .cls-58 {
        letter-spacing: 0em;
      }

      .cls-59 {
        letter-spacing: 0em;
      }

      .cls-60 {
        clip-path: url(#clippath-30);
      }

      .cls-61 {
        clip-path: url(#clippath-79);
      }

      .cls-62 {
        clip-path: url(#clippath-22);
      }

      .cls-63 {
        letter-spacing: -.03em;
      }

      .cls-64 {
        clip-path: url(#clippath-9);
      }

      .cls-65 {
        clip-path: url(#clippath-82);
      }

      .cls-66 {
        clip-path: url(#clippath-52);
      }

      .cls-67 {
        clip-path: url(#clippath);
      }

      .cls-68 {
        letter-spacing: 0em;
      }

      .cls-69 {
        clip-path: url(#clippath-50);
      }

      .cls-70 {
        clip-path: url(#clippath-48);
      }

      .cls-71 {
        clip-path: url(#clippath-61);
      }

      .cls-72 {
        clip-path: url(#clippath-39);
      }

      .cls-73 {
        clip-path: url(#clippath-19);
      }

      .cls-74 {
        clip-path: url(#clippath-31);
      }

      .cls-75 {
        clip-path: url(#clippath-54);
      }

      .cls-76 {
        clip-path: url(#clippath-3);
      }

      .cls-77 {
        clip-path: url(#clippath-43);
      }

      .cls-78 {
        clip-path: url(#clippath-70);
      }

      .cls-79 {
        clip-path: url(#clippath-8);
      }

      .cls-80 {
        letter-spacing: 0em;
      }

      .cls-81 {
        clip-path: url(#clippath-55);
      }

      .cls-82 {
        clip-path: url(#clippath-69);
      }

      .cls-83 {
        clip-path: url(#clippath-29);
      }

      .cls-84 {
        clip-path: url(#clippath-18);
      }

      .cls-85 {
        clip-path: url(#clippath-14);
      }

      .cls-86 {
        clip-path: url(#clippath-17);
      }

      .cls-87 {
        clip-path: url(#clippath-5);
      }

      .cls-88 {
        letter-spacing: 0em;
      }

      .cls-89 {
        clip-path: url(#clippath-58);
      }

      .cls-90 {
        clip-path: url(#clippath-84);
      }

      .cls-91 {
        clip-path: url(#clippath-42);
      }

      .cls-92 {
        letter-spacing: -.01em;
      }

      .cls-93 {
        clip-path: url(#clippath-65);
      }

      .cls-94 {
        clip-path: url(#clippath-10);
      }

      .cls-95 {
        clip-path: url(#clippath-23);
      }

      .cls-96 {
        clip-path: url(#clippath-74);
      }

      .cls-97 {
        clip-path: url(#clippath-56);
      }

      .cls-98 {
        clip-path: url(#clippath-53);
      }

      .cls-99 {
        clip-path: url(#clippath-49);
      }

      .cls-100 {
        letter-spacing: .02em;
      }

      .cls-101 {
        clip-path: url(#clippath-67);
      }

      .cls-102 {
        clip-path: url(#clippath-51);
      }

      .cls-103 {
        clip-path: url(#clippath-28);
      }

      .cls-104 {
        clip-path: url(#clippath-71);
      }

      .cls-105 {
        clip-path: url(#clippath-85);
      }

      .cls-106 {
        clip-path: url(#clippath-68);
      }

      .cls-107 {
        clip-path: url(#clippath-35);
      }

      .cls-108 {
        clip-path: url(#clippath-66);
      }
    </style>
    <clipPath id="clippath">
      <polygon class="cls-19" points="0 373.68 320.04 373.68 320.04 0 0 0 0 373.68 0 373.68"/>
    </clipPath>
    <clipPath id="clippath-1">
      <polygon class="cls-19" points="31.92 315.48 309.72 315.48 309.72 51 31.92 51 31.92 315.48 31.92 315.48"/>
    </clipPath>
    <clipPath id="clippath-2">
      <polygon class="cls-19" points="31.92 315.48 309.72 315.48 309.72 51 31.92 51 31.92 315.48 31.92 315.48"/>
    </clipPath>
    <clipPath id="clippath-3">
      <polygon class="cls-19" points="0 373.68 320.04 373.68 320.04 0 0 0 0 373.68 0 373.68"/>
    </clipPath>
    <clipPath id="clippath-4">
      <polygon class="cls-19" points="0 373.68 320.04 373.68 320.04 0 0 0 0 373.68 0 373.68"/>
    </clipPath>
    <clipPath id="clippath-5">
      <rect class="cls-18" width="320.04" height="373.68"/>
    </clipPath>
    <clipPath id="clippath-6">
      <polygon class="cls-19" points="0 373.68 320.04 373.68 320.04 0 0 0 0 373.68 0 373.68"/>
    </clipPath>
    <clipPath id="clippath-7">
      <rect class="cls-18" width="320.04" height="373.68"/>
    </clipPath>
    <clipPath id="clippath-8">
      <polygon class="cls-19" points="0 373.68 320.04 373.68 320.04 0 0 0 0 373.68 0 373.68"/>
    </clipPath>
    <clipPath id="clippath-9">
      <rect class="cls-18" width="320.04" height="373.68"/>
    </clipPath>
    <clipPath id="clippath-10">
      <polygon class="cls-19" points="0 373.68 320.04 373.68 320.04 0 0 0 0 373.68 0 373.68"/>
    </clipPath>
    <clipPath id="clippath-11">
      <rect class="cls-18" width="320.04" height="373.68"/>
    </clipPath>
    <clipPath id="clippath-12">
      <polygon class="cls-19" points="0 373.68 320.04 373.68 320.04 0 0 0 0 373.68 0 373.68"/>
    </clipPath>
    <clipPath id="clippath-13">
      <rect class="cls-18" width="320.04" height="373.68"/>
    </clipPath>
    <clipPath id="clippath-14">
      <polygon class="cls-19" points="0 373.68 320.04 373.68 320.04 0 0 0 0 373.68 0 373.68"/>
    </clipPath>
    <clipPath id="clippath-15">
      <rect class="cls-18" width="320.04" height="373.68"/>
    </clipPath>
    <clipPath id="clippath-16">
      <polygon class="cls-19" points="0 373.68 320.04 373.68 320.04 0 0 0 0 373.68 0 373.68"/>
    </clipPath>
    <clipPath id="clippath-17">
      <rect class="cls-18" width="320.04" height="373.68"/>
    </clipPath>
    <clipPath id="clippath-18">
      <polygon class="cls-19" points="0 373.68 320.04 373.68 320.04 0 0 0 0 373.68 0 373.68"/>
    </clipPath>
    <clipPath id="clippath-19">
      <rect class="cls-18" width="320.04" height="373.68"/>
    </clipPath>
    <clipPath id="clippath-20">
      <polygon class="cls-19" points="0 373.68 320.04 373.68 320.04 0 0 0 0 373.68 0 373.68"/>
    </clipPath>
    <clipPath id="clippath-21">
      <rect class="cls-18" width="320.04" height="373.68"/>
    </clipPath>
    <clipPath id="clippath-22">
      <polygon class="cls-19" points="0 373.68 320.04 373.68 320.04 0 0 0 0 373.68 0 373.68"/>
    </clipPath>
    <clipPath id="clippath-23">
      <rect class="cls-18" width="320.04" height="373.68"/>
    </clipPath>
    <clipPath id="clippath-24">
      <polygon class="cls-19" points="0 373.68 320.04 373.68 320.04 0 0 0 0 373.68 0 373.68"/>
    </clipPath>
    <clipPath id="clippath-25">
      <rect class="cls-18" width="320.04" height="373.68"/>
    </clipPath>
    <clipPath id="clippath-26">
      <polygon class="cls-19" points="0 373.68 320.04 373.68 320.04 0 0 0 0 373.68 0 373.68"/>
    </clipPath>
    <clipPath id="clippath-27">
      <rect class="cls-18" width="320.04" height="373.68"/>
    </clipPath>
    <clipPath id="clippath-28">
      <polygon class="cls-19" points="0 373.68 320.04 373.68 320.04 0 0 0 0 373.68 0 373.68"/>
    </clipPath>
    <clipPath id="clippath-29">
      <rect class="cls-18" width="320.04" height="373.68"/>
    </clipPath>
    <clipPath id="clippath-30">
      <polygon class="cls-19" points="0 373.68 320.04 373.68 320.04 0 0 0 0 373.68 0 373.68"/>
    </clipPath>
    <clipPath id="clippath-31">
      <rect class="cls-18" width="320.04" height="373.68"/>
    </clipPath>
    <clipPath id="clippath-32">
      <polygon class="cls-19" points="0 373.68 320.04 373.68 320.04 0 0 0 0 373.68 0 373.68"/>
    </clipPath>
    <clipPath id="clippath-33">
      <polygon class="cls-19" points="0 373.68 320.04 373.68 320.04 0 0 0 0 373.68 0 373.68"/>
    </clipPath>
    <clipPath id="clippath-34">
      <rect class="cls-18" width="320.04" height="373.68"/>
    </clipPath>
    <clipPath id="clippath-35">
      <polygon class="cls-19" points="0 373.68 320.04 373.68 320.04 0 0 0 0 373.68 0 373.68"/>
    </clipPath>
    <clipPath id="clippath-36">
      <polygon class="cls-19" points="0 373.68 320.04 373.68 320.04 0 0 0 0 373.68 0 373.68"/>
    </clipPath>
    <clipPath id="clippath-37">
      <rect class="cls-18" width="320.04" height="373.68"/>
    </clipPath>
    <clipPath id="clippath-38">
      <polygon class="cls-19" points="366.72 373.68 686.64 373.68 686.64 0 366.72 0 366.72 373.68 366.72 373.68"/>
    </clipPath>
    <clipPath id="clippath-39">
      <polygon class="cls-19" points="398.64 315.48 676.44 315.48 676.44 51 398.64 51 398.64 315.48 398.64 315.48"/>
    </clipPath>
    <clipPath id="clippath-40">
      <polygon class="cls-19" points="398.64 315.48 676.44 315.48 676.44 51 398.64 51 398.64 315.48 398.64 315.48"/>
    </clipPath>
    <clipPath id="clippath-41">
      <polygon class="cls-19" points="366.72 373.68 686.64 373.68 686.64 0 366.72 0 366.72 373.68 366.72 373.68"/>
    </clipPath>
    <clipPath id="clippath-42">
      <polygon class="cls-19" points="366.72 373.68 686.64 373.68 686.64 0 366.72 0 366.72 373.68 366.72 373.68"/>
    </clipPath>
    <clipPath id="clippath-43">
      <rect class="cls-18" x="366.72" width="319.92" height="373.68"/>
    </clipPath>
    <clipPath id="clippath-44">
      <polygon class="cls-19" points="366.72 373.68 686.64 373.68 686.64 0 366.72 0 366.72 373.68 366.72 373.68"/>
    </clipPath>
    <clipPath id="clippath-45">
      <rect class="cls-18" x="366.72" width="319.92" height="373.68"/>
    </clipPath>
    <clipPath id="clippath-46">
      <polygon class="cls-19" points="366.72 373.68 686.64 373.68 686.64 0 366.72 0 366.72 373.68 366.72 373.68"/>
    </clipPath>
    <clipPath id="clippath-47">
      <rect class="cls-18" x="366.72" width="319.92" height="373.68"/>
    </clipPath>
    <clipPath id="clippath-48">
      <polygon class="cls-19" points="366.72 373.68 686.64 373.68 686.64 0 366.72 0 366.72 373.68 366.72 373.68"/>
    </clipPath>
    <clipPath id="clippath-49">
      <rect class="cls-18" x="366.72" width="319.92" height="373.68"/>
    </clipPath>
    <clipPath id="clippath-50">
      <polygon class="cls-19" points="366.72 373.68 686.64 373.68 686.64 0 366.72 0 366.72 373.68 366.72 373.68"/>
    </clipPath>
    <clipPath id="clippath-51">
      <rect class="cls-18" x="366.72" width="319.92" height="373.68"/>
    </clipPath>
    <clipPath id="clippath-52">
      <polygon class="cls-19" points="366.72 373.68 686.64 373.68 686.64 0 366.72 0 366.72 373.68 366.72 373.68"/>
    </clipPath>
    <clipPath id="clippath-53">
      <rect class="cls-18" x="366.72" width="319.92" height="373.68"/>
    </clipPath>
    <clipPath id="clippath-54">
      <polygon class="cls-19" points="366.72 373.68 686.64 373.68 686.64 0 366.72 0 366.72 373.68 366.72 373.68"/>
    </clipPath>
    <clipPath id="clippath-55">
      <rect class="cls-18" x="366.72" width="319.92" height="373.68"/>
    </clipPath>
    <clipPath id="clippath-56">
      <polygon class="cls-19" points="366.72 373.68 686.64 373.68 686.64 0 366.72 0 366.72 373.68 366.72 373.68"/>
    </clipPath>
    <clipPath id="clippath-57">
      <rect class="cls-18" x="366.72" width="319.92" height="373.68"/>
    </clipPath>
    <clipPath id="clippath-58">
      <polygon class="cls-19" points="366.72 373.68 686.64 373.68 686.64 0 366.72 0 366.72 373.68 366.72 373.68"/>
    </clipPath>
    <clipPath id="clippath-59">
      <rect class="cls-18" x="366.72" width="319.92" height="373.68"/>
    </clipPath>
    <clipPath id="clippath-60">
      <polygon class="cls-19" points="366.72 373.68 686.64 373.68 686.64 0 366.72 0 366.72 373.68 366.72 373.68"/>
    </clipPath>
    <clipPath id="clippath-61">
      <rect class="cls-18" x="366.72" width="319.92" height="373.68"/>
    </clipPath>
    <clipPath id="clippath-62">
      <polygon class="cls-19" points="366.72 373.68 686.64 373.68 686.64 0 366.72 0 366.72 373.68 366.72 373.68"/>
    </clipPath>
    <clipPath id="clippath-63">
      <rect class="cls-18" x="366.72" width="319.92" height="373.68"/>
    </clipPath>
    <clipPath id="clippath-64">
      <polygon class="cls-19" points="366.72 373.68 686.64 373.68 686.64 0 366.72 0 366.72 373.68 366.72 373.68"/>
    </clipPath>
    <clipPath id="clippath-65">
      <rect class="cls-18" x="366.72" width="319.92" height="373.68"/>
    </clipPath>
    <clipPath id="clippath-66">
      <polygon class="cls-19" points="366.72 373.68 686.64 373.68 686.64 0 366.72 0 366.72 373.68 366.72 373.68"/>
    </clipPath>
    <clipPath id="clippath-67">
      <rect class="cls-18" x="366.72" width="319.92" height="373.68"/>
    </clipPath>
    <clipPath id="clippath-68">
      <polygon class="cls-19" points="366.72 373.68 686.64 373.68 686.64 0 366.72 0 366.72 373.68 366.72 373.68"/>
    </clipPath>
    <clipPath id="clippath-69">
      <rect class="cls-18" x="366.72" width="319.92" height="373.68"/>
    </clipPath>
    <clipPath id="clippath-70">
      <polygon class="cls-19" points="366.72 373.68 686.64 373.68 686.64 0 366.72 0 366.72 373.68 366.72 373.68"/>
    </clipPath>
    <clipPath id="clippath-71">
      <rect class="cls-18" x="366.72" width="319.92" height="373.68"/>
    </clipPath>
    <clipPath id="clippath-72">
      <polygon class="cls-19" points="366.72 373.68 686.64 373.68 686.64 0 366.72 0 366.72 373.68 366.72 373.68"/>
    </clipPath>
    <clipPath id="clippath-73">
      <rect class="cls-18" x="366.72" width="319.92" height="373.68"/>
    </clipPath>
    <clipPath id="clippath-74">
      <polygon class="cls-19" points="366.72 373.68 686.64 373.68 686.64 0 366.72 0 366.72 373.68 366.72 373.68"/>
    </clipPath>
    <clipPath id="clippath-75">
      <polygon class="cls-19" points="366.72 373.68 686.64 373.68 686.64 0 366.72 0 366.72 373.68 366.72 373.68"/>
    </clipPath>
    <clipPath id="clippath-76">
      <rect class="cls-18" x="366.72" width="319.92" height="373.68"/>
    </clipPath>
    <clipPath id="clippath-77">
      <polygon class="cls-19" points="366.72 373.68 686.64 373.68 686.64 0 366.72 0 366.72 373.68 366.72 373.68"/>
    </clipPath>
    <clipPath id="clippath-78">
      <polygon class="cls-19" points="366.72 373.68 686.64 373.68 686.64 0 366.72 0 366.72 373.68 366.72 373.68"/>
    </clipPath>
    <clipPath id="clippath-79">
      <rect class="cls-18" x="366.72" width="319.92" height="373.68"/>
    </clipPath>
    <clipPath id="clippath-80">
      <polygon class="cls-19" points="0 406.2 686.76 406.2 686.76 0 0 0 0 406.2 0 406.2"/>
    </clipPath>
    <clipPath id="clippath-81">
      <rect class="cls-18" width="686.76" height="406.2"/>
    </clipPath>
    <clipPath id="clippath-82">
      <polygon class="cls-19" points="0 406.2 686.76 406.2 686.76 0 0 0 0 406.2 0 406.2"/>
    </clipPath>
    <clipPath id="clippath-83">
      <rect class="cls-18" width="686.76" height="406.2"/>
    </clipPath>
    <clipPath id="clippath-84">
      <polygon class="cls-19" points="0 406.2 686.76 406.2 686.76 0 0 0 0 406.2 0 406.2"/>
    </clipPath>
    <clipPath id="clippath-85">
      <rect class="cls-18" width="686.76" height="406.2"/>
    </clipPath>
  </defs>
  <g class="cls-67">
    <path class="cls-17" d="m32.04,277.08h276.96M32.04,239.4h276.96M32.04,201.72h276.96M32.04,164.04h276.96M32.04,126.36h276.96M32.04,88.68h276.96M32.04,51h276.96"/>
  </g>
  <g class="cls-46">
    <path class="cls-31" d="m54.72,149.04h20.64v165.72h-20.64v-165.72h0Zm92.28-79.2h20.76v244.92h-20.76V69.84h0Zm92.4,30.24h20.64v214.68h-20.64V100.08h0Z"/>
  </g>
  <g class="cls-21">
    <path class="cls-28" d="m81,258.24h20.76v56.52h-20.76v-56.52h0Zm92.28,0h20.76v56.52h-20.76v-56.52h0Zm92.4,3.84h20.64v52.68h-20.64v-52.68h0Z"/>
  </g>
  <g class="cls-76">
    <line class="cls-17" x1="32.04" y1="314.76" x2="309" y2="314.76"/>
  </g>
  <g class="cls-47">
    <g class="cls-87">
      <text class="cls-27" transform="translate(13.14 318.95)"><tspan x="0" y="0">0</tspan></text>
    </g>
  </g>
  <g class="cls-34">
    <g class="cls-41">
      <text class="cls-27" transform="translate(6.54 281.26)"><tspan x="0" y="0">10</tspan></text>
    </g>
  </g>
  <g class="cls-79">
    <g class="cls-64">
      <text class="cls-27" transform="translate(6.54 243.58)"><tspan x="0" y="0">20</tspan></text>
    </g>
  </g>
  <g class="cls-94">
    <g class="cls-7">
      <text class="cls-27" transform="translate(6.54 205.9)"><tspan x="0" y="0">30</tspan></text>
    </g>
  </g>
  <g class="cls-55">
    <g class="cls-22">
      <text class="cls-27" transform="translate(6.54 168.21)"><tspan x="0" y="0">40</tspan></text>
    </g>
  </g>
  <g class="cls-85">
    <g class="cls-32">
      <text class="cls-27" transform="translate(6.54 130.53)"><tspan x="0" y="0">50</tspan></text>
    </g>
  </g>
  <g class="cls-8">
    <g class="cls-86">
      <text class="cls-27" transform="translate(6.54 92.85)"><tspan x="0" y="0">60</tspan></text>
    </g>
  </g>
  <g class="cls-84">
    <g class="cls-73">
      <text class="cls-27" transform="translate(6.54 55.17)"><tspan x="0" y="0">70</tspan></text>
    </g>
  </g>
  <g class="cls-6">
    <g class="cls-42">
      <text class="cls-27" transform="translate(65.02 336.58)"><tspan x="0" y="0">2010</tspan></text>
    </g>
  </g>
  <g class="cls-62">
    <g class="cls-95">
      <text class="cls-27" transform="translate(157.36 336.58)"><tspan x="0" y="0">2019</tspan></text>
    </g>
  </g>
  <g class="cls-57">
    <g class="cls-25">
      <text class="cls-27" transform="translate(249.69 336.58)"><tspan x="0" y="0">2022</tspan></text>
    </g>
  </g>
  <g class="cls-38">
    <g class="cls-50">
      <text class="cls-26" transform="translate(82.68 27.7)"><tspan x="0" y="0">사회주의에</tspan></text>
    </g>
  </g>
  <g class="cls-103">
    <g class="cls-83">
      <text class="cls-26" transform="translate(168.13 27.7)"><tspan x="0" y="0">대한</tspan></text>
    </g>
  </g>
  <g class="cls-60">
    <g class="cls-74">
      <text class="cls-26" transform="translate(205.21 27.7)"><tspan x="0" y="0">지지</tspan></text>
    </g>
  </g>
  <g class="cls-16">
    <polygon class="cls-29" points="123.6 353.16 130.68 353.16 130.68 360.36 123.6 360.36 123.6 353.16 123.6 353.16"/>
  </g>
  <g class="cls-11">
    <g class="cls-44">
      <text class="cls-27" transform="translate(133.93 360.95)"><tspan x="0" y="0">민주</tspan></text>
    </g>
  </g>
  <g class="cls-107">
    <polygon class="cls-30" points="166.92 353.16 174.12 353.16 174.12 360.36 166.92 360.36 166.92 353.16 166.92 353.16"/>
  </g>
  <g class="cls-49">
    <g class="cls-23">
      <text class="cls-27" transform="translate(177.3 360.95)"><tspan x="0" y="0">공화</tspan></text>
    </g>
  </g>
  <g class="cls-48">
    <path class="cls-17" d="m398.76,285.48h276.96m-276.96-29.28h276.96m-276.96-29.28h276.96m-276.96-29.4h276.96m-276.96-29.28h276.96m-276.96-29.28h276.96m-276.96-29.28h276.96m-276.96-29.28h276.96m-276.96-29.4h276.96"/>
  </g>
  <g class="cls-72">
    <path class="cls-31" d="m421.44,177h20.64v137.76h-20.64v-137.76h0Zm92.28-23.4h20.76v161.16h-20.76v-161.16h0Zm92.4,26.4h20.64v134.76h-20.64v-134.76h0Z"/>
  </g>
  <g class="cls-37">
    <path class="cls-28" d="m447.72,133.08h20.64v181.68h-20.64v-181.68h0Zm92.28-46.92h20.76v228.6h-20.76V86.16h0Zm92.4,11.76h20.64v216.84h-20.64V97.92h0Z"/>
  </g>
  <g class="cls-15">
    <line class="cls-17" x1="398.76" y1="314.76" x2="675.72" y2="314.76"/>
  </g>
  <g class="cls-91">
    <g class="cls-77">
      <text class="cls-27" transform="translate(379.83 318.95)"><tspan x="0" y="0">0</tspan></text>
    </g>
  </g>
  <g class="cls-52">
    <g class="cls-4">
      <text class="cls-27" transform="translate(373.24 289.63)"><tspan x="0" y="0">10</tspan></text>
    </g>
  </g>
  <g class="cls-24">
    <g class="cls-13">
      <text class="cls-27" transform="translate(373.24 260.33)"><tspan x="0" y="0">20</tspan></text>
    </g>
  </g>
  <g class="cls-70">
    <g class="cls-99">
      <text class="cls-27" transform="translate(373.24 231.01)"><tspan x="0" y="0">30</tspan></text>
    </g>
  </g>
  <g class="cls-69">
    <g class="cls-102">
      <text class="cls-27" transform="translate(373.24 201.7)"><tspan x="0" y="0">40</tspan></text>
    </g>
  </g>
  <g class="cls-66">
    <g class="cls-98">
      <text class="cls-27" transform="translate(373.24 172.4)"><tspan x="0" y="0">50</tspan></text>
    </g>
  </g>
  <g class="cls-75">
    <g class="cls-81">
      <text class="cls-27" transform="translate(373.24 143.09)"><tspan x="0" y="0">60</tspan></text>
    </g>
  </g>
  <g class="cls-97">
    <g class="cls-45">
      <text class="cls-27" transform="translate(373.24 113.79)"><tspan x="0" y="0">70</tspan></text>
    </g>
  </g>
  <g class="cls-89">
    <g class="cls-9">
      <text class="cls-27" transform="translate(373.24 84.48)"><tspan x="0" y="0">80</tspan></text>
    </g>
  </g>
  <g class="cls-51">
    <g class="cls-71">
      <text class="cls-27" transform="translate(373.24 55.17)"><tspan x="0" y="0">90</tspan></text>
    </g>
  </g>
  <g class="cls-3">
    <g class="cls-5">
      <text class="cls-27" transform="translate(431.72 336.58)"><tspan x="0" y="0">2010</tspan></text>
    </g>
  </g>
  <g class="cls-12">
    <g class="cls-93">
      <text class="cls-27" transform="translate(524.05 336.58)"><tspan x="0" y="0">2019</tspan></text>
    </g>
  </g>
  <g class="cls-108">
    <g class="cls-101">
      <text class="cls-27" transform="translate(616.39 336.58)"><tspan x="0" y="0">2022</tspan></text>
    </g>
  </g>
  <g class="cls-106">
    <g class="cls-82">
      <text class="cls-26" transform="translate(449.38 27.7)"><tspan x="0" y="0">자본주의에</tspan></text>
    </g>
  </g>
  <g class="cls-78">
    <g class="cls-104">
      <text class="cls-26" transform="translate(534.82 27.7)"><tspan x="0" y="0">대한</tspan></text>
    </g>
  </g>
  <g class="cls-2">
    <g class="cls-1">
      <text class="cls-26" transform="translate(571.9 27.7)"><tspan x="0" y="0">지지</tspan></text>
    </g>
  </g>
  <g class="cls-96">
    <polygon class="cls-29" points="490.2 353.16 497.4 353.16 497.4 360.36 490.2 360.36 490.2 353.16 490.2 353.16"/>
  </g>
  <g class="cls-40">
    <g class="cls-36">
      <text class="cls-27" transform="translate(500.63 360.95)"><tspan x="0" y="0">민주</tspan></text>
    </g>
  </g>
  <g class="cls-14">
    <polygon class="cls-30" points="533.64 353.16 540.84 353.16 540.84 360.36 533.64 360.36 533.64 353.16 533.64 353.16"/>
  </g>
  <g class="cls-10">
    <g class="cls-61">
      <text class="cls-27" transform="translate(544 360.95)"><tspan x="0" y="0">공화</tspan></text>
    </g>
  </g>
  <g class="cls-56">
    <g class="cls-39">
      <text class="cls-54" transform="translate(31.09 396.31)"><tspan x="0" y="0">출처</tspan></text>
    </g>
    <g class="cls-65">
      <g class="cls-20">
        <text class="cls-54" transform="translate(59.29 396.31)"><tspan x="0" y="0">:</tspan></text>
      </g>
      <g class="cls-90">
        <g class="cls-105">
          <text class="cls-54" transform="translate(66.25 396.31)"><tspan x="0" y="0">P</tspan><tspan class="cls-35" x="6.85" y="0">E</tspan><tspan class="cls-53" x="13.2" y="0">W</tspan><tspan class="cls-100" x="24.61" y="0"> </tspan><tspan class="cls-63" x="29.04" y="0">R</tspan><tspan class="cls-80" x="36.01" y="0">e</tspan><tspan class="cls-53" x="42.48" y="0">s</tspan><tspan class="cls-59" x="47.64" y="0">e</tspan><tspan x="54.11" y="0">a</tspan><tspan class="cls-92" x="60.35" y="0">r</tspan><tspan class="cls-58" x="64.44" y="0">c</tspan><tspan class="cls-88" x="70.09" y="0">h</tspan><tspan class="cls-68" x="77.04" y="0"> </tspan><tspan class="cls-33" x="81.25" y="0">C</tspan><tspan class="cls-80" x="88.82" y="0">e</tspan><tspan class="cls-88" x="95.29" y="0">n</tspan><tspan class="cls-43" x="102.24" y="0">t</tspan><tspan class="cls-80" x="106.21" y="0">e</tspan><tspan x="112.68" y="0">r</tspan></text>
        </g>
      </g>
    </g>
  </g>
</svg>
